<svg xmlns="http://www.w3.org/2000/svg" viewBox="0 0 850.8 256"><defs><style>.cls-1{font-size:158.05px;stroke:#1c75bc;font-family:MyriadPro-Regular, Myriad Pro;}.cls-1,.cls-5{fill:#00aeef;stroke-width:4px;}.cls-1,.cls-5,.cls-6,.cls-7{stroke-miterlimit:10;}.cls-2{letter-spacing:0em;}.cls-3{letter-spacing:-0.02em;}.cls-4{letter-spacing:-0.01em;}.cls-5{stroke:#00aeef;}.cls-6{fill:#fff;}.cls-6,.cls-7{stroke:#231f20;}.cls-7{fill:none;stroke-width:3px;}</style></defs><g id="Layer_2" data-name="Layer 2"><g id="Layer_1-2" data-name="Layer 1"><text class="cls-1" transform="translate(2 214.49) scale(0.66 1)">Sha<tspan class="cls-2" x="241.82" y="0">r</tspan><tspan class="cls-3" x="294.13" y="0">k</tspan><tspan class="cls-4" x="365.26" y="0">T</tspan><tspan x="441.91" y="0">imes</tspan></text><circle class="cls-5" cx="617.39" cy="125.24" r="96.7"/><path class="cls-5" d="M598.71,38.43A171.29,171.29,0,0,0,541.63,9.08C503-2.14,462.27,1.51,460.81,9.43c-1.37,7.4,33.14,9,56.75,39.44,17.59,22.67,14.31,42.22,25.52,45.45C552.12,96.92,568.13,88.21,598.71,38.43Z"/><path class="cls-5" d="M590.4,32.36C676.26,8,743.31,11.53,784.42,17.55c52.13,7.62,60.07,18.94,62.64,25.27,13.16,32.5-51.12,92.3-98.9,123.08-43.1,27.76-104.76,52.5-104.76,52.5h0C590.53,183.15,560.75,129.66,569,80.29,570.85,68.92,575.82,51.41,590.4,32.36Z"/><ellipse class="cls-6" cx="626.73" cy="71.55" rx="28.02" ry="23.18"/><polyline class="cls-7" points="638.27 125.24 663.54 156.01 687.72 115.78 721.78 125.24 750.35 88.97 792.11 94.73 811.89 60.4 839.37 71.55"/></g></g></svg>